<svg width="288" height="200" viewBox="0 0 288 200" fill="none" xmlns="http://www.w3.org/2000/svg">
<path d="M0 8C0 3.58173 3.58172 0 8 0H280C284.418 0 288 3.58172 288 8V192C288 196.418 284.418 200 280 200H8C3.58173 200 0 196.418 0 192V8Z" fill="#F1F5F9"/>
<path d="M35.0126 141.646H86.405V93.7975H35.0126V141.646Z" fill="white"/>
<path d="M86.405 93.7975V82.1559C86.405 81.7342 86.7469 81.3924 87.1686 81.3924H204.991V30.0868L35.7765 30.0004C35.3547 30.0002 35.0126 30.3421 35.0126 30.7639V93.7975H86.405Z" fill="white"/>
<path d="M35.0126 169.236C35.0126 169.658 35.3545 170 35.7761 170H85.6415C86.0632 170 86.405 169.658 86.405 169.236V141.646H35.0126V169.236Z" fill="white"/>
<path d="M252.224 81.3924C252.646 81.3924 252.987 81.0506 252.987 80.6289V30.7649C252.987 30.3427 252.645 30.0006 252.222 30.0014L204.991 30.0868V81.3924H252.224Z" fill="white"/>
<path d="M35.0126 141.646V169.236C35.0126 169.658 35.3545 170 35.7761 170H85.6415C86.0632 170 86.405 169.658 86.405 169.236V141.646M35.0126 141.646H86.405M35.0126 141.646V93.7975M86.405 141.646V93.7975M86.405 93.7975V82.1559C86.405 81.7342 86.7469 81.3924 87.1686 81.3924H204.991M86.405 93.7975H35.0126M35.0126 93.7975V30.7639C35.0126 30.3421 35.3547 30.0002 35.7765 30.0004L204.991 30.0868M204.991 30.0868L252.222 30.0014C252.645 30.0006 252.987 30.3427 252.987 30.7649V80.6289C252.987 81.0506 252.646 81.3924 252.224 81.3924H204.991M204.991 30.0868V81.3924" stroke="#0B1F2A" stroke-width="0.860759"/>
<path d="M111.304 71.6828V41.3111C111.304 40.8894 111.646 40.5476 112.067 40.5476H144.975V37.7668C144.975 37.3451 145.317 37.0033 145.738 37.0033H146.747H147.756C148.177 37.0033 148.519 37.3451 148.519 37.7668V40.5476H181.427C181.848 40.5476 182.19 40.8894 182.19 41.3111V71.6828C182.19 72.1045 181.848 72.4463 181.427 72.4463H112.067C111.646 72.4463 111.304 72.1045 111.304 71.6828Z" fill="#8A8F98"/>
<path d="M146.747 37.0033V47.6362M146.747 37.0033H145.738C145.317 37.0033 144.975 37.3451 144.975 37.7668V46.8727C144.975 47.2944 145.317 47.6362 145.738 47.6362H146.747M146.747 37.0033H147.756C148.177 37.0033 148.519 37.3451 148.519 37.7668V46.8727C148.519 47.2944 148.177 47.6362 147.756 47.6362H146.747M182.19 41.3111V71.6828C182.19 72.1045 181.848 72.4463 181.427 72.4463H112.067C111.646 72.4463 111.304 72.1045 111.304 71.6828V41.3111C111.304 40.8894 111.646 40.5476 112.067 40.5476H181.427C181.848 40.5476 182.19 40.8894 182.19 41.3111Z" stroke="#0B1F2A" stroke-width="1.07595"/>
<path d="M49.7622 115.019C45.8702 114.587 43.0656 111.081 43.498 107.189C43.8801 103.751 46.3238 101.307 49.7622 100.925C54.0603 100.447 58.07 104.457 57.5925 108.755C57.16 112.647 53.6543 115.452 49.7622 115.019Z" fill="#8A8F98" stroke="#1E1E1E" stroke-width="0.860759"/>
<path d="M71.028 115.019C67.1359 114.587 64.3313 111.081 64.7638 107.189C65.1458 103.75 67.5895 101.307 71.028 100.925C75.3261 100.447 79.3358 104.457 78.8582 108.755C78.4258 112.647 74.9201 115.452 71.028 115.019Z" fill="#8A8F98" stroke="#1E1E1E" stroke-width="0.860759"/>
<path d="M71.028 136.286C67.1359 135.853 64.3313 132.347 64.7638 128.455C65.1458 125.017 67.5895 122.573 71.028 122.191C75.3261 121.713 79.3358 125.723 78.8582 130.021C78.4258 133.913 74.9201 136.718 71.028 136.286Z" fill="#8A8F98" stroke="#1E1E1E" stroke-width="0.860759"/>
<path d="M49.7625 136.286C45.8704 135.853 43.0658 132.347 43.4983 128.455C43.8803 125.017 46.324 122.573 49.7625 122.191C54.0606 121.713 58.0703 125.723 57.5927 130.021C57.1603 133.913 53.6546 136.718 49.7625 136.286Z" fill="#8A8F98" stroke="#1E1E1E" stroke-width="0.860759"/>
<path d="M212.83 56.7052H216.351M244.52 56.7052H240.999M228.675 56.7052V67.3245M228.675 56.7052L219.872 47.8558M228.675 56.7052L219.872 63.7847M228.675 56.7052L228.786 56.5929M228.675 56.7052H216.351M228.675 56.7052H240.999M228.675 56.7052V46.0859M228.675 40.7762V46.0859M228.675 72.6341V67.3245M228.675 67.3245L223.393 70.8642M228.675 67.3245L233.956 70.8642M228.675 67.3245V46.0859M237.478 47.8558L228.786 56.5929M237.478 63.7847L228.786 56.5929M216.351 56.7052L212.83 51.3955M216.351 56.7052L212.83 62.0148M216.351 56.7052H211.069H240.999M246.28 56.7052H240.999M240.999 56.7052L244.52 51.3955M240.999 56.7052L244.52 62.0148M228.675 46.0859L233.956 42.5461M228.675 46.0859L223.393 42.5461" stroke="#0B1F2A" stroke-width="0.710127"/>
</svg>
