<svg width="288" height="200" viewBox="0 0 288 200" fill="none" xmlns="http://www.w3.org/2000/svg">
<path d="M0 8C0 3.58173 3.58172 0 8 0H280C284.418 0 288 3.58172 288 8V192C288 196.418 284.418 200 280 200H8C3.58173 200 0 196.418 0 192V8Z" fill="#F1F5F9"/>
<path d="M83.3786 30V82L208.071 82V30H83.3786Z" fill="white"/>
<path d="M257.164 82C257.744 82 258.214 81.5299 258.214 80.95V31.05C258.214 30.4701 257.744 30 257.164 30H208.071V82H257.164Z" fill="white"/>
<path d="M30.8357 30C30.2558 30 29.7857 30.4701 29.7857 31.05V80.95C29.7857 81.5299 30.2558 82 30.8357 82L83.3786 82V30H30.8357Z" fill="white"/>
<path d="M83.3786 30H30.8357C30.2558 30 29.7857 30.4701 29.7857 31.05V80.95C29.7857 81.5299 30.2558 82 30.8357 82L83.3786 82M83.3786 30V82M83.3786 30H208.071M83.3786 82L208.071 82M208.071 30H257.164C257.744 30 258.214 30.4701 258.214 31.05V80.95C258.214 81.5299 257.744 82 257.164 82H208.071M208.071 30V82" stroke="#0B1F2A" stroke-width="1.22073"/>
<path d="M109.645 73.523V42.1945C109.645 41.6146 110.115 41.1445 110.695 41.1445H144.93V38.4802C144.93 37.9003 145.401 37.4302 145.98 37.4302H146.788H147.595C148.175 37.4302 148.645 37.9003 148.645 38.4802V41.1445H182.881C183.46 41.1445 183.931 41.6146 183.931 42.1945V73.523C183.931 74.1029 183.46 74.573 182.881 74.573H110.695C110.115 74.573 109.645 74.1029 109.645 73.523Z" fill="#8A8F98"/>
<path d="M146.788 37.4302V48.573M146.788 37.4302H145.98C145.401 37.4302 144.93 37.9003 144.93 38.4802V47.523C144.93 48.1029 145.401 48.573 145.98 48.573H146.788M146.788 37.4302H147.595C148.175 37.4302 148.645 37.9003 148.645 38.4802V47.523C148.645 48.1029 148.175 48.573 147.595 48.573H146.788M183.931 42.1945V73.523C183.931 74.1029 183.46 74.573 182.881 74.573H110.695C110.115 74.573 109.645 74.1029 109.645 73.523V42.1945C109.645 41.6146 110.115 41.1445 110.695 41.1445H182.881C183.46 41.1445 183.931 41.6146 183.931 42.1945Z" stroke="#0B1F2A" stroke-width="1.22073"/>
<path d="M216.036 57.5873H219.726M249.246 57.5873H245.556M232.641 57.5873V68.7158M232.641 57.5873L223.416 48.3135M232.641 57.5873L223.416 65.0063M232.641 57.5873L232.758 57.4696M232.641 57.5873H219.726M232.641 57.5873H245.556M232.641 57.5873V46.4587M232.641 40.8944V46.4587M232.641 74.2801V68.7158M232.641 68.7158L227.106 72.4254M232.641 68.7158L238.176 72.4254M232.641 68.7158V46.4587M241.866 48.3135L232.758 57.4696M241.866 65.0063L232.758 57.4696M219.726 57.5873L216.036 52.023M219.726 57.5873L216.036 63.1516M219.726 57.5873H214.191H245.556M251.091 57.5873H245.556M245.556 57.5873L249.246 52.023M245.556 57.5873L249.246 63.1516M232.641 46.4587L238.176 42.7492M232.641 46.4587L227.106 42.7492" stroke="#0B1F2A" stroke-width="0.976585"/>
<path d="M45.6829 52.2415C41.6042 51.7883 38.6651 48.1145 39.1183 44.0357C39.5187 40.4324 42.0796 37.8715 45.6829 37.4711C50.1871 36.9706 54.3892 41.1727 53.8887 45.6769C53.4355 49.7556 49.7617 52.6947 45.6829 52.2415Z" fill="#8A8F98" stroke="#0B1F2A" stroke-width="0.976585"/>
<path d="M67.9683 52.2416C63.8895 51.7884 60.9505 48.1145 61.4036 44.0358C61.804 40.4324 64.3649 37.8716 67.9683 37.4712C72.4725 36.9707 76.6745 41.1727 76.174 45.677C75.7209 49.7557 72.047 52.6948 67.9683 52.2416Z" fill="#8A8F98" stroke="#0B1F2A" stroke-width="0.976585"/>
<path d="M67.9683 74.5269C63.8895 74.0737 60.9505 70.3999 61.4036 66.3211C61.804 62.7178 64.3649 60.1569 67.9683 59.7565C72.4725 59.256 76.6745 63.4581 76.174 67.9623C75.7209 72.041 72.047 74.9801 67.9683 74.5269Z" fill="#8A8F98" stroke="#0B1F2A" stroke-width="0.976585"/>
<path d="M45.683 74.5269C41.6043 74.0737 38.6652 70.3999 39.1184 66.3211C39.5187 62.7178 42.0796 60.1569 45.683 59.7565C50.1872 59.256 54.3892 63.4581 53.8888 67.9623C53.4356 72.041 49.7617 74.9801 45.683 74.5269Z" fill="#8A8F98" stroke="#0B1F2A" stroke-width="0.976585"/>
</svg>
