<svg width="288" height="200" viewBox="0 0 288 200" fill="none" xmlns="http://www.w3.org/2000/svg">
<path d="M0 8C0 3.58173 3.58172 0 8 0H280C284.418 0 288 3.58172 288 8V192C288 196.418 284.418 200 280 200H8C3.58173 200 0 196.418 0 192V8Z" fill="#F1F5F9"/>
<path d="M34.7363 141.929H86.0062V93.9592H34.7363V141.929Z" fill="white"/>
<path d="M34.7363 169.645C34.7363 170.037 35.054 170.355 35.4459 170.355H85.2966C85.6885 170.355 86.0062 170.037 86.0062 169.645V141.929H34.7363V169.645Z" fill="white"/>
<path d="M86.0062 82.2323C86.0062 81.8404 86.3239 81.5227 86.7158 81.5227H204.436C204.828 81.5227 205.146 81.8404 205.146 82.2323V120.609H253.264V30.7096C253.264 30.3177 252.946 30 252.554 30H35.4459C35.054 30 34.7363 30.3177 34.7363 30.7096V93.9592H86.0062V82.2323Z" fill="white"/>
<path d="M205.146 169.645C205.146 170.037 205.463 170.355 205.855 170.355H252.554C252.946 170.355 253.264 170.037 253.264 169.645V120.609H205.146V169.645Z" fill="white"/>
<path d="M86.0062 141.929V169.645C86.0062 170.037 85.6885 170.355 85.2966 170.355H35.4459C35.054 170.355 34.7363 170.037 34.7363 169.645V141.929M86.0062 141.929H34.7363M86.0062 141.929V93.9592M34.7363 141.929V93.9592M34.7363 93.9592V30.7096C34.7363 30.3177 35.054 30 35.4459 30H252.554C252.946 30 253.264 30.3177 253.264 30.7096V120.609M34.7363 93.9592H86.0062M86.0062 93.9592V82.2323C86.0062 81.8404 86.3239 81.5227 86.7158 81.5227H204.436C204.828 81.5227 205.146 81.8404 205.146 82.2323V120.609M205.146 120.609V169.645C205.146 170.037 205.463 170.355 205.855 170.355H252.554C252.946 170.355 253.264 170.037 253.264 169.645V120.609M205.146 120.609H253.264" stroke="#0B1F2A" stroke-width="0.8"/>
<path d="M213.004 145.964H216.534M244.775 145.964H241.245M228.89 145.964V156.61M228.89 145.964L220.064 137.092M228.89 145.964L220.064 153.061M228.89 145.964L229.002 145.851M228.89 145.964H216.534M228.89 145.964H241.245M228.89 145.964V135.317M228.89 129.994V135.317M228.89 161.933V156.61M228.89 156.61L223.594 160.158M228.89 156.61L234.185 160.158M228.89 156.61V135.317M237.715 137.092L229.002 145.851M237.715 153.061L229.002 145.851M216.534 145.964L213.004 140.64M216.534 145.964L213.004 151.287M216.534 145.964H211.239H241.245M246.54 145.964H241.245M241.245 145.964L244.775 140.64M241.245 145.964L244.775 151.287M228.89 135.317L234.185 131.769M228.89 135.317L223.594 131.769" stroke="#0B1F2A" stroke-width="0.66"/>
<path d="M111.036 71.9294V41.369C111.036 40.9771 111.354 40.6594 111.746 40.6594H144.792V37.8158C144.792 37.4238 145.11 37.1061 145.502 37.1061H146.569H147.636C148.028 37.1061 148.346 37.4238 148.346 37.8158V40.6594H181.392C181.784 40.6594 182.102 40.9771 182.102 41.369V71.9294C182.102 72.3213 181.784 72.639 181.392 72.639H111.746C111.354 72.639 111.036 72.3213 111.036 71.9294Z" fill="#8A8F98"/>
<path d="M146.569 37.1061V47.766M146.569 37.1061H145.502C145.11 37.1061 144.792 37.4238 144.792 37.8158V47.0564C144.792 47.4483 145.11 47.766 145.502 47.766H146.569M146.569 37.1061H147.636C148.028 37.1061 148.346 37.4238 148.346 37.8158V47.0564C148.346 47.4483 148.028 47.766 147.636 47.766H146.569M182.102 41.369V71.9294C182.102 72.3213 181.784 72.639 181.392 72.639H111.746C111.354 72.639 111.036 72.3213 111.036 71.9294V41.369C111.036 40.9771 111.354 40.6594 111.746 40.6594H181.392C181.784 40.6594 182.102 40.9771 182.102 41.369Z" stroke="#0B1F2A"/>
<path d="M49.199 114.814C45.2971 114.381 42.4854 110.866 42.9189 106.964C43.3019 103.517 45.7518 101.067 49.199 100.684C53.508 100.205 57.5279 104.225 57.0491 108.534C56.6156 112.436 53.1009 115.248 49.199 114.814Z" fill="#8A8F98" stroke="#1E1E1E" stroke-width="0.8"/>
<path d="M70.5188 114.814C66.6169 114.381 63.8052 110.866 64.2387 106.964C64.6217 103.517 67.0716 101.067 70.5188 100.684C74.8278 100.205 78.8477 104.225 78.3689 108.534C77.9353 112.436 74.4207 115.248 70.5188 114.814Z" fill="#8A8F98" stroke="#1E1E1E" stroke-width="0.8"/>
<path d="M70.5188 136.134C66.6169 135.701 63.8052 132.186 64.2387 128.284C64.6217 124.837 67.0716 122.387 70.5188 122.004C74.8278 121.525 78.8477 125.545 78.3689 129.854C77.9353 133.756 74.4207 136.568 70.5188 136.134Z" fill="#8A8F98" stroke="#1E1E1E" stroke-width="0.8"/>
<path d="M49.1991 136.134C45.2971 135.701 42.4854 132.186 42.919 128.284C43.302 124.837 45.7519 122.387 49.1991 122.004C53.508 121.525 57.5279 125.545 57.0492 129.854C56.6156 133.756 53.101 136.568 49.1991 136.134Z" fill="#8A8F98" stroke="#1E1E1E" stroke-width="0.8"/>
</svg>
